<svg xmlns="http://www.w3.org/2000/svg" width="1960" height="1150" viewBox="0 0 1960 1150" font-family="Arial, Helvetica, sans-serif">
  <defs>
    <marker id="aBlack" viewBox="0 0 10 10" refX="9" refY="5" markerWidth="7" markerHeight="7" orient="auto-start-reverse"><path d="M0 0 L10 5 L0 10 z" fill="#000"/></marker>
    <marker id="aRed" viewBox="0 0 10 10" refX="9" refY="5" markerWidth="7" markerHeight="7" orient="auto-start-reverse"><path d="M0 0 L10 5 L0 10 z" fill="#C00000"/></marker>
    <marker id="aOrange" viewBox="0 0 10 10" refX="9" refY="5" markerWidth="7" markerHeight="7" orient="auto-start-reverse"><path d="M0 0 L10 5 L0 10 z" fill="#E07B00"/></marker>
    <marker id="aPurple" viewBox="0 0 10 10" refX="9" refY="5" markerWidth="7" markerHeight="7" orient="auto-start-reverse"><path d="M0 0 L10 5 L0 10 z" fill="#7030A0"/></marker>
    <marker id="aTeal" viewBox="0 0 10 10" refX="9" refY="5" markerWidth="7" markerHeight="7" orient="auto-start-reverse"><path d="M0 0 L10 5 L0 10 z" fill="#1F8A8A"/></marker>
    <marker id="aBlue" viewBox="0 0 10 10" refX="9" refY="5" markerWidth="7" markerHeight="7" orient="auto-start-reverse"><path d="M0 0 L10 5 L0 10 z" fill="#1F6FB2"/></marker>
    <marker id="aGray" viewBox="0 0 10 10" refX="9" refY="5" markerWidth="7" markerHeight="7" orient="auto-start-reverse"><path d="M0 0 L10 5 L0 10 z" fill="#777"/></marker>
    <pattern id="brick" width="14" height="10" patternUnits="userSpaceOnUse">
      <rect width="14" height="10" fill="#B23A1E"/>
      <path d="M0 5 H14 M7 0 V5 M0 5 V10 M14 5 V10" stroke="#7A2410" stroke-width="1.3"/>
    </pattern>
    <g id="srv">
      <rect x="0" y="0" width="46" height="30" rx="3" fill="#DCE6F1" stroke="#3B6EA5" stroke-width="1.3"/>
      <line x1="6" y1="9" x2="40" y2="9" stroke="#3B6EA5" stroke-width="1.2"/>
      <line x1="6" y1="16" x2="40" y2="16" stroke="#3B6EA5" stroke-width="1.2"/>
      <line x1="6" y1="23" x2="34" y2="23" stroke="#3B6EA5" stroke-width="1.2"/>
      <circle cx="39" cy="23" r="2.4" fill="#2E9E4F"/>
    </g>
    <g id="lb">
      <path d="M0 -24 l22 13 v22 l-22 13 l-22 -13 v-22 z" fill="#2E9E4F" stroke="#1E6E36" stroke-width="2"/>
      <circle cx="0" cy="0" r="6" fill="#FFF"/>
    </g>
  </defs>

  <rect width="1960" height="1150" fill="#FFFFFF"/>

  <!-- PROPOSED banner -->
  <rect x="20" y="8" width="1920" height="24" fill="#FFF3CD" stroke="#E0A800" stroke-width="1.5"/>
  <text x="980" y="25" font-size="13" font-weight="bold" fill="#8A6D00" text-anchor="middle">PROPOSED TARGET-STATE — event-day scale-out per SIMF-SAD-001 §A.3 (owner-approved sizing). Zone names / HA / host names / IP ranges / appliance vendors are illustrative and [OWNER / INFRA INPUT REQUIRED]. Current as-built deployment is a single reverse proxy — see §2.7.</text>

  <!-- Title bar -->
  <rect x="20" y="40" width="1920" height="30" fill="#1F3864"/>
  <text x="980" y="61" font-size="17" font-weight="bold" fill="#FFF" text-anchor="middle">SIMF — Event-Day Production Architecture · Ministry of Defense Private Cloud</text>

  <!-- Capacity strip -->
  <rect x="20" y="78" width="1920" height="30" fill="#EAF1FB" stroke="#3B6EA5" stroke-width="1.2"/>
  <text x="980" y="98" font-size="13" font-weight="bold" fill="#1F3864" text-anchor="middle">Capacity target: ≈ 30,000 concurrent attendees at peak (≈ 50,000 registered × 0.6 peak-factor, SIMF-PTS-001), ≈ 40,000 design headroom · p95 SLOs met at CPU &lt; 75% · live video offloaded to YouTube (not on SIMF servers)</text>

  <!-- ============ ZONE FRAMES ============ -->
  <rect x="20" y="116" width="320" height="1004" fill="none" stroke="#808080" stroke-width="1.5"/>
  <rect x="20" y="116" width="320" height="30" fill="#2E75B6"/>
  <text x="180" y="137" font-size="16" font-weight="bold" fill="#FFF" text-anchor="middle">Internet</text>

  <rect x="372" y="116" width="1030" height="1004" fill="none" stroke="#808080" stroke-width="1.5"/>
  <rect x="372" y="116" width="1030" height="30" fill="#4E7A2F"/>
  <text x="887" y="137" font-size="16" font-weight="bold" fill="#FFF" text-anchor="middle">SITE SSA Zone — application servers (Secure Service Area)</text>

  <rect x="1436" y="116" width="504" height="1004" fill="none" stroke="#808080" stroke-width="1.5"/>
  <rect x="1436" y="116" width="504" height="30" fill="#1F3864"/>
  <text x="1688" y="137" font-size="16" font-weight="bold" fill="#FFF" text-anchor="middle">SITE HSA Zone — data (High Security Area)</text>

  <!-- ============ FIREWALLS ============ -->
  <rect x="344" y="150" width="22" height="900" fill="url(#brick)" stroke="#7A2410" stroke-width="1.2"/>
  <text x="355" y="900" font-size="12" font-weight="bold" fill="#FFF" text-anchor="middle" paint-order="stroke" stroke="#5A1B0C" stroke-width="2.4" transform="rotate(-90 355 900)">EDGE FIREWALL</text>
  <rect x="1408" y="150" width="22" height="900" fill="url(#brick)" stroke="#7A2410" stroke-width="1.2"/>
  <text x="1419" y="900" font-size="12" font-weight="bold" fill="#FFF" text-anchor="middle" paint-order="stroke" stroke="#5A1B0C" stroke-width="2.4" transform="rotate(-90 1419 900)">INNER FIREWALL</text>

  <!-- ============ INTERNET CONTENTS ============ -->
  <!-- External services (outbound) -->
  <rect x="36" y="152" width="290" height="124" fill="#FFF" stroke="#6B2FA0" stroke-width="1.5"/>
  <rect x="36" y="152" width="290" height="26" fill="#6B2FA0"/>
  <text x="181" y="171" font-size="13" font-weight="bold" fill="#FFF" text-anchor="middle">External Services (outbound)</text>
  <text x="50" y="197" font-size="12">• AI provider — Gemini / OpenAI /</text>
  <text x="60" y="213" font-size="12">Anthropic (session summaries)</text>
  <text x="50" y="232" font-size="12">• YouTube caption API (subtitles)</text>
  <text x="50" y="251" font-size="10.5" fill="#666">Server-to-server, via egress allowlist (§2.9).</text>
  <text x="50" y="267" font-size="10.5" fill="#666">SIMF uses e-mail OTP — no SMS / NAFATH.</text>

  <!-- Attendee -->
  <rect x="36" y="300" width="290" height="132" fill="#FFF" stroke="#2E9E4F" stroke-width="1.5"/>
  <rect x="36" y="300" width="290" height="26" fill="#00A651"/>
  <text x="181" y="319" font-size="13" font-weight="bold" fill="#FFF" text-anchor="middle">Attendee / public (≈ 50k registered)</text>
  <rect x="66" y="340" width="58" height="42" fill="#E8E8E8" stroke="#555" stroke-width="1.4"/>
  <rect x="72" y="346" width="46" height="28" fill="#8FA8C8"/>
  <rect x="87" y="382" width="16" height="7" fill="#555"/>
  <rect x="138" y="340" width="28" height="46" rx="4" fill="#E8E8E8" stroke="#555" stroke-width="1.4"/>
  <rect x="143" y="346" width="18" height="32" fill="#8FA8C8"/>
  <text x="244" y="357" font-size="11" text-anchor="middle">Mobile app</text>
  <text x="244" y="372" font-size="11" text-anchor="middle">(iOS / Android)</text>
  <text x="181" y="404" font-size="11" text-anchor="middle">+ public website (browser)</text>
  <text x="181" y="423" font-size="10.5" fill="#00792E" text-anchor="middle">highest-concurrency client on event day</text>

  <!-- YouTube live (client-direct) -->
  <rect x="36" y="450" width="290" height="48" fill="#FDECEC" stroke="#C00000" stroke-width="1.3"/>
  <text x="181" y="470" font-size="12" font-weight="bold" fill="#B00000" text-anchor="middle">▶ YouTube — live-session video</text>
  <text x="181" y="488" font-size="10.5" fill="#8A2A00" text-anchor="middle">client-direct playback — does NOT traverse SIMF</text>

  <!-- Admin -->
  <rect x="36" y="516" width="290" height="108" fill="#FFF" stroke="#C00000" stroke-width="1.5"/>
  <rect x="36" y="516" width="290" height="26" fill="#E8112D"/>
  <text x="181" y="535" font-size="13" font-weight="bold" fill="#FFF" text-anchor="middle">Administrator (backend)</text>
  <rect x="70" y="554" width="58" height="42" fill="#E8E8E8" stroke="#555" stroke-width="1.4"/>
  <rect x="76" y="560" width="46" height="28" fill="#8FA8C8"/>
  <rect x="91" y="596" width="16" height="7" fill="#555"/>
  <text x="220" y="572" font-size="11" text-anchor="middle">Organiser /</text>
  <text x="220" y="587" font-size="11" text-anchor="middle">committee / PR</text>
  <text x="181" y="614" font-size="10.5" fill="#C00000" text-anchor="middle">operator-scale (tens of admins)</text>

  <!-- Legend -->
  <rect x="36" y="640" width="290" height="458" fill="#F2F2F2" stroke="#808080" stroke-width="1.4"/>
  <text x="52" y="663" font-size="14" font-weight="bold">Legend</text>
  <line x1="52" y1="684" x2="116" y2="684" stroke="#000" stroke-width="2.4" marker-end="url(#aBlack)"/>
  <text x="126" y="689" font-size="11.5">Attendee / public (HTTPS TLS 1.3)</text>
  <line x1="52" y1="708" x2="116" y2="708" stroke="#C00000" stroke-width="2.4" marker-end="url(#aRed)"/>
  <text x="126" y="713" font-size="11.5">Administrator (HTTPS)</text>
  <line x1="52" y1="732" x2="116" y2="732" stroke="#1F6FB2" stroke-width="2.4" marker-end="url(#aBlue)"/>
  <text x="126" y="737" font-size="11.5">Internal API call (HTTPS 443)</text>
  <line x1="52" y1="756" x2="116" y2="756" stroke="#E07B00" stroke-width="2.4" marker-end="url(#aOrange)"/>
  <text x="126" y="761" font-size="11.5">Outbound to external (egress)</text>
  <line x1="52" y1="780" x2="116" y2="780" stroke="#7030A0" stroke-width="2.4" marker-end="url(#aPurple)"/>
  <text x="126" y="785" font-size="11.5">DB access (TCP 1433, AG listener)</text>
  <line x1="52" y1="804" x2="116" y2="804" stroke="#1F8A8A" stroke-width="2.4" marker-end="url(#aTeal)"/>
  <text x="126" y="809" font-size="11.5">File bytes (SMB 445)</text>
  <line x1="52" y1="828" x2="116" y2="828" stroke="#777" stroke-width="2.2" stroke-dasharray="6,4" marker-end="url(#aGray)"/>
  <text x="126" y="833" font-size="11.5">Client-direct video (YouTube)</text>
  <use href="#srv" x="52" y="848"/>
  <text x="126" y="868" font-size="11.5">Application-server node</text>
  <ellipse cx="66" cy="896" rx="14" ry="5" fill="#4472C4" stroke="#2E4E8F" stroke-width="1.2"/>
  <path d="M52 896 v13 a14 5 0 0 0 28 0 v-13" fill="#4472C4" stroke="#2E4E8F" stroke-width="1.2"/>
  <text x="126" y="903" font-size="11.5">SQL Server replica</text>
  <line x1="52" y1="922" x2="326" y2="922" stroke="#B0B0B0" stroke-width="1"/>
  <text x="52" y="941" font-size="10.5" fill="#444">×N = instance count. N+1 = one spare node for HA.</text>
  <text x="52" y="957" font-size="10.5" fill="#444">Only SIMF.Api + the worker hold DB connections;</text>
  <text x="52" y="973" font-size="10.5" fill="#444">SIMF.Web and SIMF.ControlPanel reach data only</text>
  <text x="52" y="989" font-size="10.5" fill="#444">through SIMF.Api (typed HTTPS 443 client).</text>
  <text x="52" y="1009" font-size="10.5" fill="#444">Reads scale on the readable secondaries + per-node</text>
  <text x="52" y="1025" font-size="10.5" fill="#444">in-memory cache (§A.1); SignalR fans out via the</text>
  <text x="52" y="1041" font-size="10.5" fill="#444">SQL Server backplane (no Redis).</text>
  <text x="52" y="1062" font-size="10.5" font-style="italic" fill="#8A2A00">As-built today: single reverse proxy, no WAF / LB,</text>
  <text x="52" y="1078" font-size="10.5" font-style="italic" fill="#8A2A00">one SQL instance — see §2.7.</text>

  <!-- ============ SSA: edge WAF + LB ============ -->
  <rect x="392" y="400" width="150" height="250" fill="#EAF6EE" stroke="#1E6E36" stroke-width="1.6"/>
  <rect x="392" y="400" width="150" height="26" fill="#1E6E36"/>
  <text x="467" y="419" font-size="12.5" font-weight="bold" fill="#FFF" text-anchor="middle">Edge — WAF + LB</text>
  <use href="#lb" x="467" y="474"/>
  <use href="#lb" x="467" y="552"/>
  <text x="467" y="596" font-size="10.8" font-weight="bold" fill="#1E6E36" text-anchor="middle">WAF + Load Balancer</text>
  <text x="467" y="610" font-size="10.2" text-anchor="middle">HA pair · OWASP WAF · L7 LB</text>
  <text x="467" y="623" font-size="10.2" text-anchor="middle">TLS 1.3 termination</text>
  <text x="467" y="636" font-size="10.2" text-anchor="middle">WebSocket-aware · /health</text>

  <!-- ============ SSA: application tiers (Web / API / CP / worker) ============ -->
  <!-- Website tier -->
  <rect x="600" y="150" width="440" height="150" fill="#F4FBF6" stroke="#2E7D46" stroke-width="1.6"/>
  <rect x="600" y="150" width="440" height="26" fill="#2E7D46"/>
  <text x="820" y="169" font-size="12.5" font-weight="bold" fill="#FFF" text-anchor="middle">Website tier — SIMF.Web ×2  (N+1)</text>
  <use href="#srv" x="642" y="192"/>
  <use href="#srv" x="712" y="192"/>
  <text x="900" y="205" font-size="11" text-anchor="middle">Blazor SSR</text>
  <text x="900" y="220" font-size="11" text-anchor="middle">public, read-heavy</text>
  <text x="820" y="250" font-size="11.5" font-weight="bold" fill="#1F3864" text-anchor="middle">4 vCPU / 16 GB per node</text>
  <text x="820" y="268" font-size="10.5" fill="#666" text-anchor="middle">served from cache; session affinity at the LB</text>
  <text x="820" y="286" font-size="10.5" fill="#666" text-anchor="middle">interactive islands call the API tier (HTTPS 443)</text>

  <!-- API tier -->
  <rect x="600" y="322" width="440" height="250" fill="#F4F8FC" stroke="#3B6EA5" stroke-width="1.6"/>
  <rect x="600" y="322" width="440" height="26" fill="#3B6EA5"/>
  <text x="820" y="341" font-size="12.5" font-weight="bold" fill="#FFF" text-anchor="middle">API tier — SIMF.Api ×4  (stateless, N+1)</text>
  <use href="#srv" x="642" y="362"/>
  <use href="#srv" x="712" y="362"/>
  <use href="#srv" x="642" y="402"/>
  <use href="#srv" x="712" y="402"/>
  <text x="905" y="378" font-size="11" text-anchor="middle">.NET 10 / FastEndpoints</text>
  <text x="905" y="393" font-size="11" text-anchor="middle">IIS + Kestrel reverse proxy</text>
  <text x="905" y="408" font-size="11" text-anchor="middle">REST + SignalR (WebSockets)</text>
  <text x="820" y="450" font-size="11" text-anchor="middle">Per-node in-memory cache (§A.1) · circuit breakers (§A.2)</text>
  <text x="820" y="468" font-size="11.5" font-weight="bold" fill="#1F3864" text-anchor="middle">8 vCPU / 32 GB per node · Windows Server 2022</text>
  <text x="820" y="486" font-size="11" text-anchor="middle">≈ 10,000 WebSocket connections / node → ≈ 40k ceiling</text>
  <text x="820" y="504" font-size="10.5" fill="#00792E" text-anchor="middle">owns EF Core DB access — Web + CP reach data only via the API</text>
  <text x="820" y="522" font-size="10.5" fill="#00792E" text-anchor="middle">serves the mobile app + website + Control Panel APIs</text>
  <text x="820" y="540" font-size="10.5" fill="#666" text-anchor="middle">horizontally elastic — add nodes for more headroom</text>

  <!-- Admin (Control Panel) tier -->
  <rect x="600" y="594" width="440" height="150" fill="#FBF3F3" stroke="#C0504D" stroke-width="1.6"/>
  <rect x="600" y="594" width="440" height="26" fill="#C0504D"/>
  <text x="820" y="613" font-size="12.5" font-weight="bold" fill="#FFF" text-anchor="middle">Admin tier — SIMF.ControlPanel ×2  (N+1)</text>
  <use href="#srv" x="642" y="636"/>
  <use href="#srv" x="712" y="636"/>
  <text x="900" y="649" font-size="11" text-anchor="middle">Blazor Server</text>
  <text x="900" y="664" font-size="11" text-anchor="middle">sticky SignalR circuits</text>
  <text x="820" y="694" font-size="11.5" font-weight="bold" fill="#1F3864" text-anchor="middle">4 vCPU / 16 GB per node</text>
  <text x="820" y="712" font-size="10.5" fill="#C00000" text-anchor="middle">admin-only · operator-scale · session affinity at the LB</text>
  <text x="820" y="730" font-size="10.5" fill="#666" text-anchor="middle">calls the API tier over HTTPS 443 (no direct DB access)</text>

  <!-- Background worker -->
  <rect x="600" y="766" width="440" height="108" fill="#FFF8EE" stroke="#B5860B" stroke-width="1.6"/>
  <rect x="600" y="766" width="440" height="26" fill="#B5860B"/>
  <text x="820" y="785" font-size="12.5" font-weight="bold" fill="#FFF" text-anchor="middle">Background worker ×1–2  (N+1)</text>
  <use href="#srv" x="642" y="806"/>
  <text x="905" y="824" font-size="11" text-anchor="middle">notification / session-reminder drain (§A.2)</text>
  <text x="820" y="850" font-size="11" text-anchor="middle">async channel send — a slow gateway never blocks a request</text>
  <text x="820" y="866" font-size="11" font-weight="bold" fill="#1F3864" text-anchor="middle">2 vCPU / 8 GB per node</text>

  <!-- Internal services -->
  <rect x="600" y="896" width="440" height="150" fill="#F7F7F7" stroke="#808080" stroke-width="1.5" stroke-dasharray="6,4"/>
  <text x="820" y="918" font-size="12.5" font-weight="bold" fill="#555" text-anchor="middle">Internal services (SSA)</text>
  <rect x="626" y="936" width="180" height="90" fill="#5B9BD5" stroke="#2E75B6" stroke-width="1.4"/>
  <text x="716" y="974" font-size="12" font-weight="bold" fill="#FFF" text-anchor="middle">SMTP relay</text>
  <text x="716" y="994" font-size="10.5" fill="#FFF" text-anchor="middle">MailKit · TCP 587</text>
  <rect x="834" y="936" width="180" height="90" fill="#5B9BD5" stroke="#2E75B6" stroke-width="1.4"/>
  <text x="924" y="967" font-size="12" font-weight="bold" fill="#FFF" text-anchor="middle">Syslog / SIEM</text>
  <text x="924" y="985" font-size="10.5" fill="#FFF" text-anchor="middle">Serilog · TCP 6514</text>
  <text x="924" y="1000" font-size="10.5" fill="#FFF" text-anchor="middle">(syslog-over-TLS)</text>

  <!-- ============ HSA: AlwaysOn AG ============ -->
  <rect x="1452" y="176" width="472" height="452" fill="#F2F5FA" stroke="#1F3864" stroke-width="1.7"/>
  <rect x="1452" y="176" width="472" height="42" fill="#1F3864"/>
  <text x="1688" y="193" font-size="12.5" font-weight="bold" fill="#FFF" text-anchor="middle">SQL Server 2022 Enterprise</text>
  <text x="1688" y="210" font-size="11.5" fill="#FFF" text-anchor="middle">AlwaysOn Availability Group (WSFC)</text>
  <rect x="1472" y="230" width="432" height="40" fill="#DCE6F1" stroke="#1F3864" stroke-width="1.4"/>
  <text x="1688" y="246" font-size="11.5" font-weight="bold" text-anchor="middle">AG Listener — single connection endpoint</text>
  <text x="1688" y="262" font-size="10.5" text-anchor="middle">read-write → primary · ApplicationIntent=ReadOnly → secondary</text>
  <ellipse cx="1540" cy="316" rx="30" ry="10" fill="#4472C4" stroke="#2E4E8F" stroke-width="1.5"/>
  <path d="M1510 316 v54 a30 10 0 0 0 60 0 v-54" fill="#4472C4" stroke="#2E4E8F" stroke-width="1.5"/>
  <ellipse cx="1540" cy="316" rx="30" ry="10" fill="#5B7FCA" stroke="#2E4E8F" stroke-width="1.2"/>
  <text x="1540" y="392" font-size="11" font-weight="bold" text-anchor="middle">Primary</text>
  <text x="1540" y="406" font-size="10" text-anchor="middle">(read-write)</text>
  <ellipse cx="1690" cy="316" rx="30" ry="10" fill="#4472C4" stroke="#2E4E8F" stroke-width="1.5"/>
  <path d="M1660 316 v54 a30 10 0 0 0 60 0 v-54" fill="#4472C4" stroke="#2E4E8F" stroke-width="1.5"/>
  <ellipse cx="1690" cy="316" rx="30" ry="10" fill="#8FA9DA" stroke="#2E4E8F" stroke-width="1.2"/>
  <text x="1690" y="392" font-size="11" font-weight="bold" text-anchor="middle">Readable</text>
  <text x="1690" y="406" font-size="10" text-anchor="middle">secondary</text>
  <ellipse cx="1840" cy="316" rx="30" ry="10" fill="#4472C4" stroke="#2E4E8F" stroke-width="1.5"/>
  <path d="M1810 316 v54 a30 10 0 0 0 60 0 v-54" fill="#4472C4" stroke="#2E4E8F" stroke-width="1.5"/>
  <ellipse cx="1840" cy="316" rx="30" ry="10" fill="#8FA9DA" stroke="#2E4E8F" stroke-width="1.2"/>
  <text x="1840" y="392" font-size="11" font-weight="bold" text-anchor="middle">Readable</text>
  <text x="1840" y="406" font-size="10" text-anchor="middle">secondary</text>
  <text x="1688" y="440" font-size="11" font-weight="bold" fill="#1F3864" text-anchor="middle">SIMF_Identity  +  SIMF_App  (two databases)</text>
  <text x="1688" y="457" font-size="10.5" fill="#7030A0" text-anchor="middle">no cross-database foreign key</text>
  <text x="1688" y="476" font-size="10.5" text-anchor="middle">synchronous commit + automatic failover</text>
  <text x="1688" y="493" font-size="10.5" text-anchor="middle">reads offloaded to the readable secondaries</text>
  <text x="1688" y="510" font-size="10.5" text-anchor="middle">SignalR SQL Server backplane on the primary</text>
  <text x="1688" y="536" font-size="11.5" font-weight="bold" fill="#1F3864" text-anchor="middle">16 vCPU / 128 GB per node</text>
  <text x="1688" y="554" font-size="10.5" text-anchor="middle">NVMe — data / log / tempdb on separate volumes</text>
  <text x="1688" y="571" font-size="10.5" text-anchor="middle">WSFC + file-share witness (quorum)</text>
  <text x="1688" y="596" font-size="10" fill="#666" text-anchor="middle">Dev / Test: SQL Server Standard, single node (O-3);</text>
  <text x="1688" y="610" font-size="10" fill="#666" text-anchor="middle">Enterprise + AG is the production event topology only.</text>

  <!-- ============ HSA: shared file store ============ -->
  <rect x="1452" y="662" width="472" height="170" fill="#EAF6F6" stroke="#1F8A8A" stroke-width="1.6"/>
  <rect x="1452" y="662" width="472" height="26" fill="#1F8A8A"/>
  <text x="1688" y="681" font-size="12.5" font-weight="bold" fill="#FFF" text-anchor="middle">Shared encrypted file store</text>
  <rect x="1620" y="700" width="136" height="86" fill="#BFE3E3" stroke="#1F8A8A" stroke-width="1.4"/>
  <path d="M1636 716 h60 l10 12 h34 v40 h-104 z" fill="#7FC9C9" stroke="#177070" stroke-width="1.3"/>
  <text x="1688" y="800" font-size="10" fill="#177070" text-anchor="middle">clustered / SMB 445 share</text>
  <text x="1476" y="712" font-size="10.8" text-anchor="start">StoredFile bytes (D-568):</text>
  <text x="1476" y="729" font-size="10.5" text-anchor="start">photos, media, presentations,</text>
  <text x="1476" y="745" font-size="10.5" text-anchor="start">and PII ID documents.</text>
  <text x="1476" y="766" font-size="10.5" fill="#177070" text-anchor="start">AES-256 envelope encryption</text>
  <text x="1476" y="782" font-size="10.5" fill="#177070" text-anchor="start">at rest (per-file DEK, KEK</text>
  <text x="1476" y="798" font-size="10.5" fill="#177070" text-anchor="start">from environment).</text>

  <!-- ============ HSA: backup / recovery ============ -->
  <rect x="1452" y="874" width="472" height="120" fill="#F5F5F5" stroke="#808080" stroke-width="1.4" stroke-dasharray="6,4"/>
  <text x="1688" y="898" font-size="12" font-weight="bold" fill="#555" text-anchor="middle">Backup &amp; recovery (SIMF-OPS-001)</text>
  <text x="1688" y="922" font-size="10.8" fill="#444" text-anchor="middle">Scheduled backups of both databases + the file store;</text>
  <text x="1688" y="940" font-size="10.8" fill="#444" text-anchor="middle">last known-good published build retained for rollback.</text>
  <text x="1688" y="964" font-size="10.5" fill="#666" text-anchor="middle">Logs shipped to central Syslog / SIEM for audit &amp; monitoring.</text>

  <!-- ============ FLOWS ============ -->
  <!-- Attendee -> edge firewall -> WAF/LB (black) -->
  <polyline points="326,366 366,366 392,470" fill="none" stroke="#000" stroke-width="2.6" marker-end="url(#aBlack)"/>
  <text x="360" y="357" font-size="11" font-weight="bold" text-anchor="middle">HTTPS / TLS 1.3</text>
  <!-- Admin -> edge firewall -> WAF/LB (red) -->
  <polyline points="326,570 366,570 392,590" fill="none" stroke="#C00000" stroke-width="2.6" marker-end="url(#aRed)"/>
  <text x="360" y="561" font-size="11" font-weight="bold" fill="#C00000" text-anchor="middle">HTTPS</text>
  <!-- Attendee -> YouTube live (client-direct, dashed) -->
  <polyline points="181,432 181,448" fill="none" stroke="#777" stroke-width="2.2" stroke-dasharray="6,4" marker-end="url(#aGray)"/>

  <!-- WAF/LB fan-out to tiers -->
  <!-- LB -> Website (black) -->
  <polyline points="542,510 572,510 572,225 598,225" fill="none" stroke="#000" stroke-width="2.6" marker-end="url(#aBlack)"/>
  <!-- LB -> API (black) -->
  <polyline points="542,525 580,525 580,447 598,447" fill="none" stroke="#000" stroke-width="2.6" marker-end="url(#aBlack)"/>
  <!-- LB -> Control Panel (red) -->
  <polyline points="542,540 566,540 566,669 598,669" fill="none" stroke="#C00000" stroke-width="2.6" marker-end="url(#aRed)"/>

  <!-- Web -> API (internal HTTPS 443, blue) -->
  <polyline points="760,300 760,320" fill="none" stroke="#1F6FB2" stroke-width="2.6" marker-end="url(#aBlue)"/>
  <text x="828" y="313" font-size="10.5" font-weight="bold" fill="#1F6FB2" text-anchor="middle">HTTPS 443</text>
  <!-- CP -> API (internal HTTPS 443, blue) -->
  <polyline points="760,594 760,574" fill="none" stroke="#1F6FB2" stroke-width="2.6" marker-end="url(#aBlue)"/>
  <text x="828" y="588" font-size="10.5" font-weight="bold" fill="#1F6FB2" text-anchor="middle">HTTPS 443</text>

  <!-- API tier -> External services outbound (orange), through edge firewall -->
  <polyline points="600,360 400,360 400,240 366,240 328,240" fill="none" stroke="#E07B00" stroke-width="2.6" marker-end="url(#aOrange)"/>
  <text x="470" y="232" font-size="10.5" font-weight="bold" fill="#E07B00" text-anchor="middle">outbound HTTPS (egress allowlist)</text>

  <!-- DB access: API + worker -> AG listener (purple) -->
  <polyline points="1040,447 1230,447" fill="none" stroke="#7030A0" stroke-width="2.6"/>
  <polyline points="1040,821 1200,821 1200,447" fill="none" stroke="#7030A0" stroke-width="2.6"/>
  <polyline points="1230,447 1230,250 1408,250 1470,250" fill="none" stroke="#7030A0" stroke-width="2.6" marker-end="url(#aPurple)"/>
  <text x="1320" y="242" font-size="11" font-weight="bold" fill="#7030A0" text-anchor="middle">TCP 1433 (AG listener)</text>
  <text x="1330" y="292" font-size="9.8" fill="#7030A0" text-anchor="middle">writes → primary · reads → secondary</text>
  <text x="1120" y="838" font-size="9.8" fill="#7030A0" text-anchor="middle">worker</text>

  <!-- File bytes: API -> shared file store (teal) -->
  <polyline points="1040,500 1270,500 1270,730 1450,730" fill="none" stroke="#1F8A8A" stroke-width="2.6" marker-end="url(#aTeal)"/>
  <text x="1300" y="492" font-size="11" font-weight="bold" fill="#1F8A8A" text-anchor="middle">SMB 445 (file bytes)</text>
</svg>
