<svg xmlns="http://www.w3.org/2000/svg" width="1660" height="1220" viewBox="0 0 1660 1220">
<defs>
  <marker id="ar" viewBox="0 0 10 10" refX="9" refY="5" markerWidth="7"
          markerHeight="7" orient="auto-start-reverse">
    <path d="M 0 0 L 10 5 L 0 10 z" fill="#2F5D8C"/>
  </marker>
  <marker id="ai" viewBox="0 0 10 10" refX="9" refY="5" markerWidth="7"
          markerHeight="7" orient="auto-start-reverse">
    <path d="M 0 0 L 10 5 L 0 10 z" fill="#1A1A1A"/>
  </marker>
  <pattern id="brick" width="20" height="10" patternUnits="userSpaceOnUse">
    <rect width="20" height="10" fill="#E3E6EA"/>
    <path d="M0 0 H20 M0 5 H20 M10 0 V5 M0 5 V10 M20 5 V10"
          stroke="#9CA3AF" stroke-width="0.9" fill="none"/>
  </pattern>
</defs>
<rect x="0" y="0" width="1660" height="1220" fill="#FFFFFF"/>
<text x="40" y="46" font-family="Segoe UI, Calibri, Arial, sans-serif" font-size="25" fill="#1A1A1A" font-weight="600" text-anchor="start">SIMF system components and their interaction</text>
<text x="40" y="74" font-family="Segoe UI, Calibri, Arial, sans-serif" font-size="15" fill="#6B7280" text-anchor="start">UML component diagram.  Every component carries its technology and every call carries its protocol.</text>
<line x1="40" y1="90" x2="1620" y2="90" stroke="#6B7280" stroke-width="1.2"/>
<rect x="40" y="140" width="1000" height="150" rx="4" fill="#F7F8FA" stroke="#6B7280" stroke-width="1.2" stroke-dasharray="7 4"/>
<text x="54" y="162" font-family="Segoe UI, Calibri, Arial, sans-serif" font-size="14" fill="#6B7280" font-weight="600" text-anchor="start">Client applications</text>
<rect x="65" y="180" width="230" height="96" rx="3" fill="#FFFFFF" stroke="#1A1A1A" stroke-width="1.4"/>
<text x="180.0" y="201" font-family="Segoe UI, Calibri, Arial, sans-serif" font-size="11.5" fill="#6B7280" text-anchor="middle">«client»</text>
<text x="180.0" y="220" font-family="Segoe UI, Calibri, Arial, sans-serif" font-size="14" fill="#1A1A1A" font-weight="600" text-anchor="middle">Mobile application</text>
<text x="180.0" y="237" font-family="Segoe UI, Calibri, Arial, sans-serif" font-size="11.5" fill="#1A1A1A" text-anchor="middle">Flutter, Android and iOS</text>
<rect x="310" y="180" width="230" height="96" rx="3" fill="#FFFFFF" stroke="#1A1A1A" stroke-width="1.4"/>
<text x="425.0" y="201" font-family="Segoe UI, Calibri, Arial, sans-serif" font-size="11.5" fill="#6B7280" text-anchor="middle">«client»</text>
<text x="425.0" y="220" font-family="Segoe UI, Calibri, Arial, sans-serif" font-size="14" fill="#1A1A1A" font-weight="600" text-anchor="middle">Public website</text>
<text x="425.0" y="237" font-family="Segoe UI, Calibri, Arial, sans-serif" font-size="11.5" fill="#1A1A1A" text-anchor="middle">SIMF.Web, Blazor SSR</text>
<rect x="555" y="180" width="230" height="96" rx="3" fill="#FFFFFF" stroke="#1A1A1A" stroke-width="1.4"/>
<text x="670.0" y="201" font-family="Segoe UI, Calibri, Arial, sans-serif" font-size="11.5" fill="#6B7280" text-anchor="middle">«client»</text>
<text x="670.0" y="220" font-family="Segoe UI, Calibri, Arial, sans-serif" font-size="14" fill="#1A1A1A" font-weight="600" text-anchor="middle">Control Panel</text>
<text x="670.0" y="237" font-family="Segoe UI, Calibri, Arial, sans-serif" font-size="11.5" fill="#1A1A1A" text-anchor="middle">SIMF.ControlPanel, Blazor Server</text>
<rect x="800" y="180" width="230" height="96" rx="3" fill="#FFFFFF" stroke="#1A1A1A" stroke-width="1.4"/>
<text x="915.0" y="201" font-family="Segoe UI, Calibri, Arial, sans-serif" font-size="11.5" fill="#6B7280" text-anchor="middle">«client»</text>
<text x="915.0" y="220" font-family="Segoe UI, Calibri, Arial, sans-serif" font-size="14" fill="#1A1A1A" font-weight="600" text-anchor="middle">Badge desk</text>
<text x="915.0" y="237" font-family="Segoe UI, Calibri, Arial, sans-serif" font-size="11.5" fill="#1A1A1A" text-anchor="middle">SIMF.BadgeDesk, WinForms</text>
<rect x="40" y="340" width="1000" height="520" rx="4" fill="#F7F8FA" stroke="#6B7280" stroke-width="1.2" stroke-dasharray="7 4"/>
<text x="54" y="362" font-family="Segoe UI, Calibri, Arial, sans-serif" font-size="14" fill="#6B7280" font-weight="600" text-anchor="start">SIMF.Api host</text>
<text x="1026" y="362" font-family="Segoe UI, Calibri, Arial, sans-serif" font-size="12" fill="#6B7280" text-anchor="end">single deployable process</text>
<rect x="70" y="380" width="580" height="80" rx="3" fill="#E7EDF4" stroke="#1A1A1A" stroke-width="1.4"/>
<rect x="624" y="389" width="17" height="13" fill="#FFFFFF" stroke="#1A1A1A" stroke-width="1.1"/><rect x="619" y="391" width="8" height="3.5" fill="#FFFFFF" stroke="#1A1A1A" stroke-width="1.1"/><rect x="619" y="397" width="8" height="3.5" fill="#FFFFFF" stroke="#1A1A1A" stroke-width="1.1"/>
<text x="360.0" y="401" font-family="Segoe UI, Calibri, Arial, sans-serif" font-size="11.5" fill="#6B7280" text-anchor="middle">«component»</text>
<text x="360.0" y="420" font-family="Segoe UI, Calibri, Arial, sans-serif" font-size="14" fill="#1A1A1A" font-weight="600" text-anchor="middle">SIMF.Api</text>
<text x="360.0" y="437" font-family="Segoe UI, Calibri, Arial, sans-serif" font-size="11.5" fill="#1A1A1A" text-anchor="middle">FastEndpoints, middleware, authorisation</text>
<rect x="720" y="380" width="290" height="80" rx="3" fill="#E7EDF4" stroke="#1A1A1A" stroke-width="1.4"/>
<rect x="984" y="389" width="17" height="13" fill="#FFFFFF" stroke="#1A1A1A" stroke-width="1.1"/><rect x="979" y="391" width="8" height="3.5" fill="#FFFFFF" stroke="#1A1A1A" stroke-width="1.1"/><rect x="979" y="397" width="8" height="3.5" fill="#FFFFFF" stroke="#1A1A1A" stroke-width="1.1"/>
<text x="865.0" y="401" font-family="Segoe UI, Calibri, Arial, sans-serif" font-size="11.5" fill="#6B7280" text-anchor="middle">«component»</text>
<text x="865.0" y="420" font-family="Segoe UI, Calibri, Arial, sans-serif" font-size="14" fill="#1A1A1A" font-weight="600" text-anchor="middle">Background workers</text>
<text x="865.0" y="437" font-family="Segoe UI, Calibri, Arial, sans-serif" font-size="11.5" fill="#1A1A1A" text-anchor="middle">IHostedService</text>
<rect x="70" y="500" width="580" height="110" rx="3" fill="#E7EDF4" stroke="#1A1A1A" stroke-width="1.4"/>
<rect x="624" y="509" width="17" height="13" fill="#FFFFFF" stroke="#1A1A1A" stroke-width="1.1"/><rect x="619" y="511" width="8" height="3.5" fill="#FFFFFF" stroke="#1A1A1A" stroke-width="1.1"/><rect x="619" y="517" width="8" height="3.5" fill="#FFFFFF" stroke="#1A1A1A" stroke-width="1.1"/>
<text x="360.0" y="521" font-family="Segoe UI, Calibri, Arial, sans-serif" font-size="11.5" fill="#6B7280" text-anchor="middle">«component»</text>
<text x="360.0" y="540" font-family="Segoe UI, Calibri, Arial, sans-serif" font-size="14" fill="#1A1A1A" font-weight="600" text-anchor="middle">SIMF.Infrastructure</text>
<text x="360.0" y="557" font-family="Segoe UI, Calibri, Arial, sans-serif" font-size="11.5" fill="#1A1A1A" text-anchor="middle">EF Core, storage, e-mail, identity, audit</text>
<rect x="70" y="650" width="580" height="72" rx="3" fill="#E7EDF4" stroke="#1A1A1A" stroke-width="1.4"/>
<rect x="624" y="659" width="17" height="13" fill="#FFFFFF" stroke="#1A1A1A" stroke-width="1.1"/><rect x="619" y="661" width="8" height="3.5" fill="#FFFFFF" stroke="#1A1A1A" stroke-width="1.1"/><rect x="619" y="667" width="8" height="3.5" fill="#FFFFFF" stroke="#1A1A1A" stroke-width="1.1"/>
<text x="360.0" y="671" font-family="Segoe UI, Calibri, Arial, sans-serif" font-size="11.5" fill="#6B7280" text-anchor="middle">«component»</text>
<text x="360.0" y="690" font-family="Segoe UI, Calibri, Arial, sans-serif" font-size="14" fill="#1A1A1A" font-weight="600" text-anchor="middle">SIMF.Application</text>
<text x="360.0" y="707" font-family="Segoe UI, Calibri, Arial, sans-serif" font-size="11.5" fill="#1A1A1A" text-anchor="middle">use cases and service abstractions</text>
<rect x="70" y="752" width="580" height="70" rx="3" fill="#E7EDF4" stroke="#1A1A1A" stroke-width="1.4"/>
<rect x="624" y="761" width="17" height="13" fill="#FFFFFF" stroke="#1A1A1A" stroke-width="1.1"/><rect x="619" y="763" width="8" height="3.5" fill="#FFFFFF" stroke="#1A1A1A" stroke-width="1.1"/><rect x="619" y="769" width="8" height="3.5" fill="#FFFFFF" stroke="#1A1A1A" stroke-width="1.1"/>
<text x="360.0" y="773" font-family="Segoe UI, Calibri, Arial, sans-serif" font-size="11.5" fill="#6B7280" text-anchor="middle">«component»</text>
<text x="360.0" y="792" font-family="Segoe UI, Calibri, Arial, sans-serif" font-size="14" fill="#1A1A1A" font-weight="600" text-anchor="middle">SIMF.Domain</text>
<text x="360.0" y="809" font-family="Segoe UI, Calibri, Arial, sans-serif" font-size="11.5" fill="#1A1A1A" text-anchor="middle">entities, aggregates, rules</text>
<rect x="1180" y="140" width="440" height="140" rx="4" fill="#F7F8FA" stroke="#6B7280" stroke-width="1.2" stroke-dasharray="7 4"/>
<text x="1194" y="162" font-family="Segoe UI, Calibri, Arial, sans-serif" font-size="14" fill="#6B7280" font-weight="600" text-anchor="start">External services</text>
<rect x="1205" y="180" width="390" height="80" rx="3" fill="#FFFFFF" stroke="#1A1A1A" stroke-width="1.4"/>
<text x="1400.0" y="201" font-family="Segoe UI, Calibri, Arial, sans-serif" font-size="11.5" fill="#6B7280" text-anchor="middle">«external»</text>
<text x="1400.0" y="220" font-family="Segoe UI, Calibri, Arial, sans-serif" font-size="14" fill="#1A1A1A" font-weight="600" text-anchor="middle">Log collector</text>
<text x="1400.0" y="237" font-family="Segoe UI, Calibri, Arial, sans-serif" font-size="11.5" fill="#1A1A1A" text-anchor="middle">syslog over TLS</text>
<rect x="1180" y="320" width="440" height="140" rx="4" fill="#F7F8FA" stroke="#6B7280" stroke-width="1.2" stroke-dasharray="7 4"/>
<text x="1194" y="342" font-family="Segoe UI, Calibri, Arial, sans-serif" font-size="14" fill="#6B7280" font-weight="600" text-anchor="start">Shared libraries</text>
<text x="1606" y="342" font-family="Segoe UI, Calibri, Arial, sans-serif" font-size="12" fill="#6B7280" text-anchor="end">referenced by every client and by the API host</text>
<rect x="1205" y="355" width="390" height="86" rx="3" fill="#FFFFFF" stroke="#1A1A1A" stroke-width="1.4"/>
<text x="1400.0" y="376" font-family="Segoe UI, Calibri, Arial, sans-serif" font-size="11.5" fill="#6B7280" text-anchor="middle">«library»</text>
<text x="1400.0" y="395" font-family="Segoe UI, Calibri, Arial, sans-serif" font-size="14" fill="#1A1A1A" font-weight="600" text-anchor="middle">Shared libraries</text>
<text x="1400.0" y="412" font-family="Segoe UI, Calibri, Arial, sans-serif" font-size="11.5" fill="#1A1A1A" text-anchor="middle">SIMF.Common, .Contracts, .ApiClient, .Components</text>
<rect x="40" y="900" width="1000" height="150" rx="4" fill="#F7F8FA" stroke="#6B7280" stroke-width="1.2" stroke-dasharray="7 4"/>
<text x="54" y="922" font-family="Segoe UI, Calibri, Arial, sans-serif" font-size="14" fill="#6B7280" font-weight="600" text-anchor="start">Data tier</text>
<path d="M 70 945 H 370 M 70 1005 H 370" stroke="#1A1A1A" stroke-width="1.4" fill="none"/>
<rect x="70" y="945" width="300" height="60" fill="#D8D2C8" stroke="none"/>
<path d="M 70 945 H 370 M 70 1005 H 370 M 70 945 V 1005 M 112 945 V 1005" stroke="#1A1A1A" stroke-width="1.4" fill="none"/>
<text x="91" y="980.0" font-family="Segoe UI, Calibri, Arial, sans-serif" font-size="14" fill="#1A1A1A" font-weight="600" text-anchor="middle">DB</text>
<text x="124" y="972.0" font-family="Segoe UI, Calibri, Arial, sans-serif" font-size="13.5" fill="#1A1A1A" font-weight="600" text-anchor="start">SIMF_Identity</text>
<text x="124" y="990.0" font-family="Segoe UI, Calibri, Arial, sans-serif" font-size="11.5" fill="#1A1A1A" text-anchor="start">SimfIdentityDbContext</text>
<path d="M 400 945 H 700 M 400 1005 H 700" stroke="#1A1A1A" stroke-width="1.4" fill="none"/>
<rect x="400" y="945" width="300" height="60" fill="#D8D2C8" stroke="none"/>
<path d="M 400 945 H 700 M 400 1005 H 700 M 400 945 V 1005 M 442 945 V 1005" stroke="#1A1A1A" stroke-width="1.4" fill="none"/>
<text x="421" y="980.0" font-family="Segoe UI, Calibri, Arial, sans-serif" font-size="14" fill="#1A1A1A" font-weight="600" text-anchor="middle">DB</text>
<text x="454" y="972.0" font-family="Segoe UI, Calibri, Arial, sans-serif" font-size="13.5" fill="#1A1A1A" font-weight="600" text-anchor="start">SIMF_App</text>
<text x="454" y="990.0" font-family="Segoe UI, Calibri, Arial, sans-serif" font-size="11.5" fill="#1A1A1A" text-anchor="start">SimfAppDbContext</text>
<path d="M 730 945 H 1030 M 730 1005 H 1030" stroke="#1A1A1A" stroke-width="1.4" fill="none"/>
<rect x="730" y="945" width="300" height="60" fill="#D8D2C8" stroke="none"/>
<path d="M 730 945 H 1030 M 730 1005 H 1030 M 730 945 V 1005 M 772 945 V 1005" stroke="#1A1A1A" stroke-width="1.4" fill="none"/>
<text x="751" y="980.0" font-family="Segoe UI, Calibri, Arial, sans-serif" font-size="14" fill="#1A1A1A" font-weight="600" text-anchor="middle">FS</text>
<text x="784" y="972.0" font-family="Segoe UI, Calibri, Arial, sans-serif" font-size="13.5" fill="#1A1A1A" font-weight="600" text-anchor="start">File share</text>
<text x="784" y="990.0" font-family="Segoe UI, Calibri, Arial, sans-serif" font-size="11.5" fill="#1A1A1A" text-anchor="start">stored files, SMB</text>
<path d="M 180 276 L 180 315 L 150 315 L 150 380" fill="none" stroke="#2F5D8C" stroke-width="1.6" marker-end="url(#ar)"/>
<rect x="148.5725" y="286" width="62.855000000000004" height="15" fill="#FFFFFF" stroke="none"/>
<text x="180" y="297" font-family="Segoe UI, Calibri, Arial, sans-serif" font-size="11.5" fill="#1A1A1A" text-anchor="middle">HTTPS 443</text>
<path d="M 425 276 L 425 325 L 300 325 L 300 380" fill="none" stroke="#2F5D8C" stroke-width="1.6" marker-end="url(#ar)"/>
<rect x="393.5725" y="286" width="62.855000000000004" height="15" fill="#FFFFFF" stroke="none"/>
<text x="425" y="297" font-family="Segoe UI, Calibri, Arial, sans-serif" font-size="11.5" fill="#1A1A1A" text-anchor="middle">HTTPS 443</text>
<path d="M 670 276 L 670 335 L 450 335 L 450 380" fill="none" stroke="#2F5D8C" stroke-width="1.6" marker-end="url(#ar)"/>
<rect x="638.5725" y="286" width="62.855000000000004" height="15" fill="#FFFFFF" stroke="none"/>
<text x="670" y="297" font-family="Segoe UI, Calibri, Arial, sans-serif" font-size="11.5" fill="#1A1A1A" text-anchor="middle">HTTPS 443</text>
<path d="M 915 276 L 915 345 L 580 345 L 580 380" fill="none" stroke="#2F5D8C" stroke-width="1.6" marker-end="url(#ar)"/>
<rect x="883.5725" y="286" width="62.855000000000004" height="15" fill="#FFFFFF" stroke="none"/>
<text x="915" y="297" font-family="Segoe UI, Calibri, Arial, sans-serif" font-size="11.5" fill="#1A1A1A" text-anchor="middle">HTTPS 443</text>
<path d="M 360 460 L 360 500" fill="none" stroke="#2F5D8C" stroke-width="1.6" marker-end="url(#ar)"/>
<rect x="325.525" y="470" width="68.95" height="15" fill="#FFFFFF" stroke="none"/>
<text x="360" y="481" font-family="Segoe UI, Calibri, Arial, sans-serif" font-size="11.5" fill="#1A1A1A" text-anchor="middle">in-process</text>
<path d="M 360 610 L 360 650" fill="none" stroke="#2F5D8C" stroke-width="1.6" marker-end="url(#ar)"/>
<rect x="325.525" y="620" width="68.95" height="15" fill="#FFFFFF" stroke="none"/>
<text x="360" y="631" font-family="Segoe UI, Calibri, Arial, sans-serif" font-size="11.5" fill="#1A1A1A" text-anchor="middle">in-process</text>
<path d="M 360 722 L 360 752" fill="none" stroke="#2F5D8C" stroke-width="1.6" marker-end="url(#ar)"/>
<rect x="325.525" y="724" width="68.95" height="15" fill="#FFFFFF" stroke="none"/>
<text x="360" y="735" font-family="Segoe UI, Calibri, Arial, sans-serif" font-size="11.5" fill="#1A1A1A" text-anchor="middle">in-process</text>
<path d="M 760 460 L 760 530 L 650 530" fill="none" stroke="#2F5D8C" stroke-width="1.6" marker-end="url(#ar)"/>
<rect x="670.525" y="505" width="68.95" height="15" fill="#FFFFFF" stroke="none"/>
<text x="705" y="516" font-family="Segoe UI, Calibri, Arial, sans-serif" font-size="11.5" fill="#1A1A1A" text-anchor="middle">in-process</text>
<path d="M 650 545 L 1130 545 L 1130 220 L 1205 220" fill="none" stroke="#2F5D8C" stroke-width="1.6" marker-end="url(#ar)"/>
<rect x="1129.4775" y="195" width="75.045" height="15" fill="#FFFFFF" stroke="none"/>
<text x="1167" y="206" font-family="Segoe UI, Calibri, Arial, sans-serif" font-size="11.5" fill="#1A1A1A" text-anchor="middle">syslog 6514</text>
<path d="M 650 588 L 700 588 L 700 872 L 220 872 L 220 945" fill="none" stroke="#2F5D8C" stroke-width="1.6" marker-end="url(#ar)"/>
<rect x="431.62" y="847" width="56.760000000000005" height="15" fill="#FFFFFF" stroke="none"/>
<text x="460" y="858" font-family="Segoe UI, Calibri, Arial, sans-serif" font-size="11.5" fill="#1A1A1A" text-anchor="middle">TCP 1433</text>
<path d="M 650 598 L 720 598 L 720 882 L 550 882 L 550 945" fill="none" stroke="#2F5D8C" stroke-width="1.6" marker-end="url(#ar)"/>
<rect x="616.62" y="857" width="56.760000000000005" height="15" fill="#FFFFFF" stroke="none"/>
<text x="645" y="868" font-family="Segoe UI, Calibri, Arial, sans-serif" font-size="11.5" fill="#1A1A1A" text-anchor="middle">TCP 1433</text>
<path d="M 650 606 L 740 606 L 740 892 L 880 892 L 880 945" fill="none" stroke="#2F5D8C" stroke-width="1.6" marker-end="url(#ar)"/>
<rect x="789.6675" y="867" width="50.665" height="15" fill="#FFFFFF" stroke="none"/>
<text x="815" y="878" font-family="Segoe UI, Calibri, Arial, sans-serif" font-size="11.5" fill="#1A1A1A" text-anchor="middle">SMB 445</text>
<rect x="1180" y="500" width="440" height="139" rx="3" fill="#FFFFFF" stroke="#6B7280" stroke-width="1.2"/>
<text x="1194" y="522" font-family="Segoe UI, Calibri, Arial, sans-serif" font-size="13.5" fill="#1A1A1A" font-weight="600" text-anchor="start">Key</text>
<rect x="1196" y="535" width="30" height="13" rx="2" fill="#E7EDF4" stroke="#1A1A1A" stroke-width="1"/><rect x="1216" y="537" width="7" height="6" fill="#FFFFFF" stroke="#1A1A1A" stroke-width="0.9"/>
<text x="1240" y="545" font-family="Segoe UI, Calibri, Arial, sans-serif" font-size="12" fill="#1A1A1A" text-anchor="start">Component, with its technology</text>
<rect x="1196" y="556" width="30" height="13" rx="2" fill="#FFFFFF" stroke="#1A1A1A" stroke-width="1"/>
<text x="1240" y="566" font-family="Segoe UI, Calibri, Arial, sans-serif" font-size="12" fill="#1A1A1A" text-anchor="start">Client application or external service</text>
<rect x="1196" y="577" width="30" height="13" fill="#D8D2C8" stroke="none"/><path d="M 1196 577 H 1226 M 1196 590 H 1226 M 1196 577 V 590 M 1207 577 V 590" stroke="#1A1A1A" stroke-width="1" fill="none"/>
<text x="1240" y="587" font-family="Segoe UI, Calibri, Arial, sans-serif" font-size="12" fill="#1A1A1A" text-anchor="start">Data store</text>
<rect x="1196" y="598" width="30" height="13" rx="2" fill="#F7F8FA" stroke="#6B7280" stroke-width="1" stroke-dasharray="4 3"/>
<text x="1240" y="608" font-family="Segoe UI, Calibri, Arial, sans-serif" font-size="12" fill="#1A1A1A" text-anchor="start">Grouping or process boundary</text>
<path d="M 1196 625 H 1224" stroke="#2F5D8C" stroke-width="1.6" marker-end="url(#ar)"/>
<text x="1240" y="629" font-family="Segoe UI, Calibri, Arial, sans-serif" font-size="12" fill="#1A1A1A" text-anchor="start">Call, labelled with protocol and port</text>
<rect x="40" y="1080" width="1000" height="106" rx="3" fill="#FFFFFF" stroke="#6B7280" stroke-width="1.2"/>
<text x="54" y="1101" font-family="Segoe UI, Calibri, Arial, sans-serif" font-size="13" fill="#1A1A1A" font-weight="600" text-anchor="start">Sources</text>
<text x="54" y="1121" font-family="Segoe UI, Calibri, Arial, sans-serif" font-size="11.5" fill="#1A1A1A" text-anchor="start">Component names and layering: SIMF solution source tree.</text>
<text x="54" y="1138" font-family="Segoe UI, Calibri, Arial, sans-serif" font-size="11.5" fill="#1A1A1A" text-anchor="start">Inward dependency rule Api, Infrastructure, Application, Domain: SIMF-LLD-002 section 7.1.</text>
<text x="54" y="1155" font-family="Segoe UI, Calibri, Arial, sans-serif" font-size="11.5" fill="#1A1A1A" text-anchor="start">Background workers hosted inside the API host: IHostedService registrations.</text>
<text x="54" y="1172" font-family="Segoe UI, Calibri, Arial, sans-serif" font-size="11.5" fill="#1A1A1A" text-anchor="start">Protocols and component roles: SIMF-LLD-002 section 2.1.</text>
</svg>
